<?xml version="1.0" encoding="utf-8"?>
<!-- Generator: Adobe Illustrator 24.3.0, SVG Export Plug-In . SVG Version: 6.00 Build 0)  -->
<svg version="1.1" id="_x31_" xmlns="http://www.w3.org/2000/svg" xmlns:xlink="http://www.w3.org/1999/xlink" x="0px" y="0px"
	 viewBox="0 0 70 70" style="enable-background:new 0 0 70 70;" xml:space="preserve">
<style type="text/css">
	.st0{fill-rule:evenodd;clip-rule:evenodd;fill:#2FAF39;}
	.st1{fill-rule:evenodd;clip-rule:evenodd;fill:#FFFFFF;}
</style>
<rect class="st0" width="70" height="70"/>
<path class="st1" d="M31.9,8.4c-2.5-0.4-4.9-1.2-7-2c-2.5-0.9-4.7-1.6-6.2-1.4c-2.9,0.4-5.1,2.1-6.5,4.6c-1.5,2.7-2.3,6.5-2.3,11.1
	c0.7,5.9,2.2,11.9,4.4,17.8c2.5,6.8,5.7,13.5,9.2,19.6l0,0l0.2,0.4c0.8,1.4,2.8,4.9,4.6,6.1c0.8,0.5,1.5,0.5,2.1-0.3
	c0.3-0.4,0.2-1.3,0.2-2v0l0-0.3v0l0-0.6c0-2.4-0.1-8.6,1.3-13c0.4-1.3,1-2.4,1.7-3.1c0.3-0.3,0.6-0.5,0.9-0.6c0.4-0.1,0.6-0.1,1,0
	c0.3,0.1,0.6,0.3,0.9,0.6c0.7,0.7,1.3,1.8,1.7,3.1c1.3,4.4,1.3,10.6,1.3,13l0,0.6v0l0,0.3v0c0,0.6,0,1.6,0.2,2
	c0.6,0.9,1.3,0.9,2.1,0.3c1.8-1.2,3.7-4.6,4.6-6.1l0.2-0.4l0,0c3.5-6.1,6.8-12.8,9.2-19.6c2.1-5.9,3.7-11.9,4.4-17.8
	c0-4.6-0.7-8.4-2.3-11.1c-1.4-2.5-3.6-4.2-6.5-4.6c-1.5-0.2-3.7,0.5-6.2,1.4c-2.1,0.7-4.5,1.6-7,2C36.1,8.7,33.9,8.7,31.9,8.4z"/>
</svg>
