<?xml version="1.0" encoding="utf-8"?>
<!-- Generator: Adobe Illustrator 16.0.0, SVG Export Plug-In . SVG Version: 6.00 Build 0)  -->
<!DOCTYPE svg PUBLIC "-//W3C//DTD SVG 1.1//EN" "http://www.w3.org/Graphics/SVG/1.1/DTD/svg11.dtd">
<svg version="1.1" id="Слой_1" xmlns="http://www.w3.org/2000/svg" xmlns:xlink="http://www.w3.org/1999/xlink" x="0px" y="0px"
	 width="300px" height="88px" viewBox="0 0 300 88" enable-background="new 0 0 300 88" xml:space="preserve">
<g>
	<path fill="#79B229" d="M134.074,64.49c-0.451-0.945-0.867-1.926-1.285-2.887c-0.676-1.547-1.341-3.097-2.005-4.648
		c-0.979-2.287-1.958-4.578-2.907-6.879l-0.246-0.59l-1.611,0.646l-0.102,0.257c-0.766,1.881-1.561,3.752-2.387,5.604
		c-0.72,1.614-1.462,3.225-2.252,4.809c-0.598,1.199-1.242,2.453-1.977,3.572c-0.238,0.364-1.003,1.562-1.455,1.562
		c-0.123,0-0.262-0.029-0.35-0.121l-0.527-0.527l-1.088,1.457l2.211,1.449c0.285,0.205,0.834,0.459,1.172,0.459
		c1.169,0,1.762-1.65,2.16-2.539c0.283-0.631,0.563-1.269,0.843-1.902c1.38-3.129,2.782-6.148,4.358-9.162
		c1.631,3.504,3.313,7.037,4.529,10.697c0.148,0.445,0.273,0.9,0.422,1.346l0.008,0.023c0.119,0.314,0.189,0.646,0.308,0.965
		l0.198,0.531l3.94-0.928l-0.558-0.785C134.916,66.113,134.491,65.361,134.074,64.49z"/>
	<path fill="#79B229" d="M115.115,60.761v-4.313c0-1.992-0.018-4.046,0.335-6.013l0.176-0.992l-2.231,0.58l-0.136,0.188
		c-1.518,2.104-3.082,4.183-4.674,6.229c-1.589,2.039-3.241,4.129-4.973,6.08v-6.076c0-1.991-0.017-4.045,0.335-6.012l0.157-0.887
		l-4.173,0.617l0.144,0.676c0.435,2.064,0.407,4.508,0.407,6.605v4.313c0,2.021-0.024,4.031-0.301,6.037l-0.127,0.922l2.175-0.483
		l0.144-0.193c2.434-3.27,4.901-6.553,7.482-9.707c0.697-0.854,1.402-1.688,2.132-2.506v5.934c0,1.988,0.026,4.043-0.334,6.006
		l-0.163,0.892l4.176-0.619l-0.143-0.672C115.087,65.305,115.115,62.859,115.115,60.761z"/>
	<path fill="#79B229" d="M292.871,38.189c-1.035,0.881-1.777,1.752-2.141,3.082c-0.219,0.784-0.318,1.61-0.519,2.405
		c-0.226,0.913-0.545,1.764-0.95,2.585c2.479-0.647,6.221-1.631,7.729-3.339c0.842-0.95,1.279-2.246,1.623-3.45
		c0.533-1.862,0.941-3.802,1.387-5.704C297.615,35.007,294.84,36.51,292.871,38.189z"/>
	<path fill="#79B229" d="M95.059,59.363c-0.076-1.246-0.192-2.502-0.268-3.762c-0.192-2.425-0.424-4.83-0.574-7.244
		c-0.104-1.644-0.191-3.281-0.191-4.928c0-0.955,0.039-1.91,0.076-2.865l0.035-0.903l-2.688,0.809l-0.118,0.283
		c-1.819,4.37-3.902,8.505-5.966,12.755c-1.467,3.018-2.872,5.99-4.43,8.947L70.838,39.738l-4.09,1.388l0.489,0.708
		c0.513,0.739,0.98,1.509,1.401,2.306c-0.213,2.29-0.403,4.568-0.563,6.863c-0.054,0.771-0.114,1.537-0.182,2.308
		c-0.297,3.338-0.578,6.657-1.219,9.946c-0.099,0.511-0.621,3.07-1.136,3.216c-0.137-0.027-0.556-0.281-0.694-0.365l-0.573-0.355
		l-0.837,1.518l2.691,1.424c0.375,0.188,1.055,0.461,1.451,0.461c1.41,0,1.713-1.813,1.829-2.891
		c0.139-1.291,0.178-2.652,0.272-3.951c0.229-3.229,0.451-6.471,0.77-9.688c0.124-1.25,0.269-2.488,0.472-3.724
		c0.913,1.9,1.739,3.806,2.586,5.767c1.981,4.584,4.065,9.144,6.141,13.687l0.326,0.715l1.732-1.254l0.07-0.152
		c1.104-2.402,2.172-4.803,3.218-7.229c0.342-0.793,0.686-1.582,1.041-2.369c1.416-3.156,2.966-6.543,4.788-9.568
		c0.618,5.119,1.02,10.332,1.075,15.475v1.07c0,1.076-0.049,2.082-0.186,3.154l-0.118,0.91l4.65-1.023l-0.119-0.621
		C95.602,64.727,95.285,62.13,95.059,59.363z"/>
	<path fill="#79B229" d="M197.434,50.557c-1.252-0.855-2.611-1.269-4.121-1.269c-3.024,0-5.971,1.392-7.668,3.946
		c-1.086,1.64-1.487,3.464-1.487,5.406c0,2.283,0.602,4.59,2.016,6.41c1.867,2.398,4.714,3.484,7.681,3.484
		c1.324,0,3.059-0.109,4.276-0.631c1.31-0.562,2.078-1.584,2.078-3.021v-3.342h-1.769l-0.02,0.627
		c-0.035,1.189-0.285,2.197-1.227,2.99c-0.82,0.688-2.244,1.119-3.308,1.119c-1.942,0-3.774-1.055-4.934-2.596
		c-1.039-1.382-1.576-3.152-1.63-4.88c1.847-0.174,3.613-0.204,5.492-0.209c1.109,0,2.289-0.024,3.396,0.063
		c1.287,0.104,2.59,0.111,3.879,0.129l0.652,0.01v-1.078C200.744,54.782,199.932,52.266,197.434,50.557z M190.205,56.341
		c-0.936,0-1.834-0.03-2.748-0.139c0.27-1.263,0.928-2.57,1.895-3.379c0.974-0.813,2.316-1.275,3.576-1.275
		c1.465,0,2.791,0.507,3.654,1.729c0.543,0.771,0.84,1.818,0.904,2.781C195.105,56.294,192.578,56.341,190.205,56.341z"/>
	<path fill="#79B229" d="M218.037,60.764v-4.314c0-1.992-0.018-4.045,0.334-6.012l0.16-0.886l-4.174,0.615l0.143,0.676
		c0.436,2.058,0.408,4.49,0.408,6.582c-1.473,0.177-2.977,0.146-4.455,0.146c-1.238,0-2.404-0.067-3.611-0.196v-0.926
		c0-1.992-0.02-4.046,0.332-6.013l0.158-0.887l-4.17,0.617l0.141,0.676c0.437,2.064,0.408,4.508,0.408,6.605v4.313
		c0,1.99,0.025,4.046-0.332,6.009l-0.166,0.889l4.178-0.617l-0.143-0.674c-0.436-2.064-0.406-4.508-0.406-6.605v-0.795
		c0.701-0.096,1.391-0.137,2.113-0.137h2.953c1.082,0,1.98,0.045,3,0.182v1.75c0,1.99,0.023,4.045-0.334,6.008l-0.162,0.89
		l4.174-0.617l-0.141-0.674C218.008,65.305,218.037,62.861,218.037,60.764z"/>
	<path fill="#79B229" d="M151.121,66.116v-9.556c0-2.158-0.711-3.959-2.373-5.383c-1.583-1.357-3.698-1.889-5.747-1.889
		c-1.455,0-2.392,0.25-3.725,0.775c-0.677,0.293-1.434,0.58-1.885,1.172l-0.039,0.051l-0.028,0.055
		c-0.077,0.158-0.146,0.301-0.146,0.482c0,0.254,0.107,0.475,0.273,0.656l2.387,3.053l1.096-1.102l-0.252-0.433
		c-0.086-0.146-0.371-0.649-0.371-0.828c0-0.491,0.221-0.771,0.627-1.035c0.699-0.456,1.665-0.588,2.486-0.588
		c1.145,0,2.459,0.231,3.303,1.08c0.896,0.899,1.214,2.524,1.261,3.815c-1.278-0.313-2.603-0.452-3.913-0.452
		c-1.885,0-3.96,0.426-5.537,1.498c-1.611,1.096-2.545,2.649-2.545,4.618c0,1.925,1.02,3.867,2.567,4.99
		c1.741,1.267,4.13,1.437,6.206,1.437c2.031,0,4.057-0.111,6.069-0.394l0.813-0.115l-0.307-0.766
		C151.189,66.87,151.121,66.536,151.121,66.116z M147.993,65.566c-1.024,0.59-2.104,0.713-3.305,0.711
		c-2.804,0-5.338-0.853-5.338-4.051c0-0.994,0.405-2.115,1.138-2.802c0.904-0.85,2.337-1.174,3.549-1.174
		c1.311,0,2.771,0.416,3.956,1.043V65.566z"/>
	<path fill="#79B229" d="M246.795,60.764v-4.587c0-3.725-1.295-6.887-5.627-6.887c-2.248,0-4.387,0.979-5.83,2.676
		c-1.031-1.702-2.834-2.676-4.904-2.678c-1.783,0-3.486,0.604-4.865,1.683c0.025-0.177,0.056-0.353,0.091-0.527l0.168-0.894
		l-4.183,0.617l0.146,0.676c0.437,2.064,0.405,4.509,0.405,6.605v4.313c0,1.99,0.027,4.043-0.334,6.008l-0.164,0.89l4.179-0.617
		l-0.146-0.674c-0.436-2.063-0.405-4.509-0.405-6.604V56.68c0-2.601,1.807-4.939,4.495-4.939c2.457,0,3.188,1.549,3.188,3.746v6.277
		c0,1.989,0.025,4.043-0.334,6.008l-0.164,0.889l4.179-0.617l-0.144-0.674c-0.435-2.064-0.407-4.508-0.407-6.605v-5.625
		c0-1.207,1.348-2.315,2.317-2.815c0.657-0.339,1.433-0.582,2.178-0.582c2.259,0,3.037,1.707,3.037,3.707v5.084
		c0,2.321,0.101,4.948-0.336,7.235l-0.17,0.896l4.185-0.619l-0.144-0.674C246.77,65.305,246.795,62.861,246.795,60.764z"/>
	<path fill="#79B229" d="M165.279,39.276c-3.102,0-6.42,0.215-9.473,0.781l-0.664,0.124l0.151,0.661
		c0.383,1.646,0.367,3.488,0.367,5.17v15.33c0,1.287,0.014,2.598-0.041,3.883c-0.022,0.566-0.063,1.125-0.197,1.676
		c-0.034,0.14-0.073,0.277-0.114,0.418l-0.244,0.814l0.846,0.02c1.461,0.033,2.934,0.103,4.387,0.271
		c0.857,0.101,1.697,0.244,2.549,0.377c1.24,0.195,2.404,0.277,3.662,0.277c5.043,0,9.367-1.668,12.266-5.945
		c1.74-2.565,2.451-5.225,2.451-8.301c0-3.644-0.596-6.94-2.811-9.938C175.188,40.527,170.412,39.276,165.279,39.276z
		 M175.555,62.063c-2.152,3.274-5.607,4.448-9.395,4.448c-2.225,0-4.646-0.463-6.789-1.153c-0.1-0.711-0.121-1.344-0.121-2.092
		V47.859c0-1.604,0.088-3.273,0.203-4.885c1.904-0.824,3.854-1.133,5.941-1.133c4.059,0,7.651,1.594,9.932,5.027
		c1.557,2.346,2.193,5.401,2.193,8.192C177.52,57.557,176.934,59.968,175.555,62.063z"/>
	<path fill="#79B229" d="M294.936,64.49c-0.451-0.945-0.869-1.926-1.285-2.887c-0.674-1.547-1.342-3.097-2.004-4.648
		c-0.979-2.287-1.959-4.578-2.908-6.879l-0.243-0.59l-1.61,0.646l-0.105,0.257c-0.764,1.881-1.561,3.752-2.387,5.604
		c-0.719,1.614-1.461,3.225-2.25,4.809c-0.598,1.199-1.244,2.453-1.979,3.572c-0.238,0.364-1.004,1.562-1.455,1.562
		c-0.123,0-0.262-0.029-0.35-0.121l-0.527-0.527l-0.656,0.881c-0.455-0.711-0.875-1.43-1.27-2.193
		c-0.924-1.789-1.736-3.656-2.559-5.498c-2.05-4.588-4.113-9.168-6.209-13.733c-0.769-1.678-1.527-3.338-2.211-5.056l-0.226-0.562
		l-4.57,1.492l0.81,0.75c0.354,0.331,0.686,0.695,0.942,1.108c-1.491,3.505-2.969,7.016-4.438,10.529
		c-0.76,1.816-1.543,3.625-2.354,5.422c-0.531,1.188-1.074,2.369-1.646,3.535c-0.413,0.848-0.856,1.744-1.354,2.541
		c-0.217,0.346-1.021,1.51-1.526,1.51h-0.039c-0.109-0.004-0.318-0.164-0.392-0.234l-0.543-0.543l-1.047,1.502l2.104,1.769
		c0.389,0.34,0.988,0.652,1.524,0.652c1.287,0,1.986-1.906,2.429-2.886c1.313-2.918,2.535-5.934,3.778-8.891
		c1.197-0.174,2.295-0.207,3.531-0.207h1.418c1.922,0,3.651,0.045,5.537,0.232c1.271,2.42,2.29,4.908,3.299,7.451
		c0.478,1.197,0.918,2.365,1.285,3.602l0.174,0.588l4.729-1.131l-0.146-0.213l0.746,0.49c0.287,0.207,0.836,0.461,1.172,0.461
		c1.17,0,1.765-1.65,2.16-2.539c0.282-0.633,0.563-1.268,0.844-1.902c1.38-3.129,2.785-6.148,4.359-9.162
		c1.631,3.502,3.313,7.035,4.528,10.695c0.146,0.445,0.271,0.9,0.422,1.346l0.009,0.023c0.116,0.314,0.188,0.646,0.305,0.965
		l0.199,0.531l3.94-0.928l-0.559-0.785C295.777,66.113,295.352,65.361,294.936,64.49z M263.715,54.609c-1.426,0-2.752,0-4.137-0.135
		c1.127-3.043,2.449-5.931,4.055-8.742l3.842,8.785C266.219,54.593,264.994,54.609,263.715,54.609z"/>
	<path fill="#79B229" d="M28.396,52.018c-0.062-0.861-0.392-1.486-0.848-1.72c-0.821-0.422-1.376,0.029-1.772,0.937
		c-0.334,0.762-0.55,1.877-0.727,3.021c-0.149,0.963-0.261,1.746-0.361,2.437c-0.107,0.746-0.197,1.375-0.258,1.738l-0.087,0.522
		l-0.097-0.58c-0.137-0.83-0.256-1.586-0.359-2.347c-0.102-0.764-0.189-1.522-0.265-2.348c-0.082-0.865-0.238-1.887-0.568-2.609
		c-0.387-0.844-0.989-1.313-1.924-0.83c-0.455,0.232-0.731,0.873-0.754,1.736c-0.021,0.73,0.132,1.648,0.501,2.621
		c0.286,0.756,0.697,1.469,1.193,2.143c0.492,0.666,1.063,1.294,1.679,1.894l0.556,0.543l-0.024,0.146l0.086-0.084l0.029,0.027
		l-0.008-0.049l0.542-0.525c0.615-0.598,1.229-1.258,1.756-1.953c0.538-0.7,0.992-1.446,1.279-2.209
		C28.325,53.577,28.443,52.71,28.396,52.018L28.396,52.018z"/>
	<path fill="#79B229" d="M50.047-0.178L50.047-0.178c-4.726,1.22-8.292,2.997-11.012,4.908c-2.723,1.912-4.601,3.958-5.947,5.714
		c-3.085,4.02-3.201,7.727-3.28,10.263c-0.027,0.836-0.048,1.544-0.173,2.061c-0.06,0.247-0.146,0.453-0.267,0.608
		c-0.111,0.142-0.263,0.247-0.462,0.31l0.171,0.57l0.002-0.002v0.002l0.034-0.012c0.503-0.152,6.3-1.93,7.466-2.406
		c4.701-1.924,6.924-7.049,9.227-12.352l0.001-0.001l0.026-0.062c0.623-1.437,1.738-3.489,2.713-5.287
		c1.088-2.007,2.009-3.71,1.918-4.068v-0.01C50.403-0.154,50.271-0.236,50.047-0.178z"/>
	<path fill="#79B229" d="M46.928,29.279c-2.082-2.568-5.188-4.226-9.592-4.274c-0.615-0.006-1.248,0.019-1.896,0.076
		c-1.553,0.133-3.27,0.435-4.901,0.794h-0.002c-1.792,0.396-3.495,0.87-4.781,1.28c0.419-1.05,0.698-2.037,0.835-3.047
		c0.163-1.205,0.124-2.443-0.116-3.867l-0.051-0.295l-0.292,0.053l-3.44,0.624l-0.412,0.076l0.207,0.365
		c2.017,3.556,2.022,5.149,0.857,5.815c-1.071,0.612-3.13,0.563-5.546,0.499c-3.054-0.079-6.67-0.17-9.783,1.045
		c-0.64,0.25-1.239,0.535-1.793,0.851c-4.597,2.63-6.312,7.461-6.217,13.32c0.092,5.789,1.959,12.59,4.535,19.244
		c2.625,6.779,5.988,13.41,8.962,18.66c0.579,1.023,2.289,3.391,4.078,4.879c0.736,0.613,1.494,1.084,2.206,1.27
		c0.768,0.201,1.483,0.076,2.063-0.526c0.358-0.375,0.658-0.937,0.876-1.72c0.455-1.631,0.507-3.336,0.555-5.041
		c0.042-1.448,0.087-2.903,0.383-4.293c0.176-0.823,0.423-1.323,0.697-1.563c0.132-0.119,0.273-0.166,0.41-0.151
		c0.152,0.016,0.317,0.102,0.481,0.246c0.417,0.368,0.791,1.084,0.996,1.973c0.074,0.326,0.14,0.693,0.186,1.063
		c0.04,0.332,0.065,0.668,0.065,0.969c0,0.746,0.087,2.693,0.146,3.988l0.048,1.146c0.189,5.813,2.007,6.127,4.671,3.453
		c2.399-2.404,5.542-7.517,8.739-13.058c2.153-3.731,5.342-9.961,7.614-16.84c1.568-4.744,2.699-9.803,2.747-14.564
		c0.01-0.939-0.023-1.874-0.101-2.783C50.049,35.286,48.998,31.835,46.928,29.279z M45.986,53.827
		c-1.015,3.524-2.345,7.062-3.853,10.521c-1.508,3.457-3.198,6.851-4.926,10.08c-2.154,4.023-4.312,7.516-5.969,9.248
		c-0.51,0.533-0.963,0.891-1.34,1.033c-0.292,0.111-0.535,0.07-0.711-0.145h0.001c-0.176-0.219-0.315-0.597-0.404-1.144
		c-0.203-1.256-0.265-3.139-0.333-5.203c-0.147-4.553-0.327-9.981-2.161-11.893c-0.259-0.271-0.533-0.443-0.81-0.529
		c-0.315-0.098-0.633-0.082-0.938,0.024c-0.291,0.104-0.572,0.291-0.833,0.546c-0.615,0.594-1.155,1.586-1.51,2.75
		c-1.209,3.954-1.164,9.563-1.145,11.688l0.003,0.51v0.002l0.003,0.302v0.002c0.011,0.582,0.026,1.432-0.2,1.776
		c-0.521,0.802-1.192,0.769-1.888,0.31c-1.612-1.06-3.368-4.164-4.105-5.467l-0.187-0.326v-0.002
		c-3.16-5.488-6.085-11.476-8.314-17.604c-1.935-5.313-3.347-10.74-3.936-16.04c0-4.122,0.662-7.539,2.054-9.991
		c1.298-2.286,3.245-3.738,5.892-4.143c1.359-0.208,3.297,0.464,5.563,1.25c1.902,0.659,4.032,1.399,6.283,1.781
		c1.593,0.271,3.367,0.283,5.024,0.052c1.608-0.226,3.115-0.685,4.252-1.362c2.62-1.563,5.06-1.947,7.149-1.626
		c2.636,0.405,4.728,1.931,5.944,3.619c1.77,2.457,2.642,5.378,2.866,8.514C47.716,46.021,47.093,49.975,45.986,53.827z"/>
</g>
</svg>
