<?xml version="1.0" encoding="utf-8"?>
<!-- Generator: Adobe Illustrator 24.3.0, SVG Export Plug-In . SVG Version: 6.00 Build 0)  -->
<svg version="1.1" id="Capa_1" xmlns="http://www.w3.org/2000/svg" xmlns:xlink="http://www.w3.org/1999/xlink" x="0px" y="0px"
	 viewBox="0 0 100 100" style="enable-background:new 0 0 100 100;" xml:space="preserve">
<style type="text/css">
	.st0{fill:#FFFFFF;}
</style>
<g>
	<g>
		<path class="st0" d="M2.7,75.4l20.4-12.1h0.1c0.7-0.4,1.7-0.6,2.9-0.6c1.7,0,3.2,0.6,4.4,1.7l6,6.1c0.1,0.1,0.4,0.3,0.7,0.4
			c0.3,0.1,0.5,0.2,0.7,0.2l1.3-0.3c0.9-0.2,2.2-0.7,3.8-1.5c1.7-0.8,3.7-2.2,6.2-4c2.5-1.8,5.3-4.3,8.5-7.6c3.2-3.2,5.8-6,7.5-8.4
			s3.1-4.5,3.9-6.2c1-1.9,1.6-3.6,1.9-5.1c0-0.2-0.1-0.5-0.2-0.8s-0.2-0.5-0.4-0.7l-5.2-5.2c-0.9-0.9-1.5-2-1.8-3.4
			c-0.3-1.3-0.1-2.6,0.5-3.7L75.4,2.8c0.5-0.8,1.1-1.4,1.8-2C77.9,0.3,78.7,0,79.7,0c1.3,0,2.4,0.5,3.4,1.5l14.1,14.1
			c0.7,0.6,1.3,1.5,1.8,2.5c0.5,1,0.8,2,1,3c0,0.1,0,0.8,0.1,2.1c0.1,1.3-0.1,3-0.4,5.2c-0.4,2.2-1,4.9-2,7.9
			c-1,3.1-2.5,6.5-4.4,10.3c-2,3.8-4.6,7.9-7.8,12.3C82,63.4,77.9,68.1,73,73c-6.2,6.3-12.1,11.2-17.6,14.8
			c-5.5,3.6-10.4,6.3-14.8,8.1c-4.3,1.8-8,2.9-11,3.4s-5.2,0.7-6.5,0.7c-0.6,0-1,0-1.4-0.1c-0.4,0-0.6-0.1-0.6-0.1c-1-0.1-2-0.5-3-1
			c-1-0.5-1.9-1.1-2.5-1.8l-14.1-14c-1.2-1.2-1.7-2.6-1.5-4.2C0.3,77.5,1.2,76.3,2.7,75.4z"/>
	</g>
</g>
</svg>
