<?xml version="1.0" encoding="utf-8"?>
<!-- Generator: Adobe Illustrator 15.1.0, SVG Export Plug-In . SVG Version: 6.00 Build 0)  -->
<!DOCTYPE svg PUBLIC "-//W3C//DTD SVG 1.1//EN" "http://www.w3.org/Graphics/SVG/1.1/DTD/svg11.dtd">
<svg version="1.1" id="Layer_1" xmlns="http://www.w3.org/2000/svg" xmlns:xlink="http://www.w3.org/1999/xlink" x="0px" y="0px"
	 width="50px" height="50px" viewBox="0 0 50 50" enable-background="new 0 0 50 50" xml:space="preserve">
<circle fill="#44BCE8" cx="25" cy="25" r="25"/>
<path fill="#FFFFFF" d="M39.575,12.234l-5.208,26.598c0,0-0.729,1.844-2.73,0.959l-12.021-9.333l-4.371-2.142l-7.357-2.506
	c0,0-1.13-0.406-1.239-1.291c-0.109-0.886,1.274-1.365,1.274-1.365l29.251-11.621C37.171,11.533,39.575,10.463,39.575,12.234z"/>
<path fill="#D2E5F1" d="M18.69,38.531c0,0-0.352-0.032-0.789-1.436c-0.437-1.4-2.66-8.779-2.66-8.779l17.667-11.362
	c0,0,1.02-0.628,0.984,0c0,0,0.182,0.11-0.365,0.627S19.649,30.234,19.649,30.234"/>
<path fill="#B5CFE4" d="M24.223,34.036l-4.754,4.39c0,0-0.371,0.285-0.778,0.105l0.91-8.153"/>
</svg>
